# xmcd
#
# Track frame offsets:
#	150
#	10948
#	22392
#	32067
#	42261
#	53552
#	63798
#	74521
#	86145
#	97065
#	109587
#	119163
#	128996
#	141951
#	153294
#	163433
#	174553
#	187243
#	194197
#	203416
#
# Disc length: 2847 seconds
#
# Revision: 1
# Processed by: cddbd v1.5.2PL0 Copyright (c) Steve Scherf et al.
# Submitted via: audiograbber 1.83.01
#
DISCID=320b1d14
DTITLE=The Cordettes - Lollipop - The Best Of
DYEAR=1954
DGENRE=A Cappella
TTITLE0=Mister Sandman
TTITLE1=No Other Arms, No Other Lips
TTITLE2=Lollipop
TTITLE3=Hummingbird
TTITLE4=Baby Come-A Back-A
TTITLE5=Teenage Goodnight
TTITLE6=In The Deep Blue Sea
TTITLE7=Lonely Boy
TTITLE8=Lonely Lips
TTITLE9=To Know Him Is To Love Him
TTITLE10=Just Between You And Me
TTITLE11=Photographs
TTITLE12=True Love Goes On And On
TTITLE13=No Wheels
TTITLE14=A Girl's Word Is Never Done
TTITLE15=Lay Down Your Arms
TTITLE16=Born To Be With You
TTITLE17=Tall Paul
TTITLE18=Love Is A Two Way Street
TTITLE19=Eddie My Love
EXTD=
EXTT0=
EXTT1=
EXTT2=
EXTT3=
EXTT4=
EXTT5=
EXTT6=
EXTT7=
EXTT8=
EXTT9=
EXTT10=
EXTT11=
EXTT12=
EXTT13=
EXTT14=
EXTT15=
EXTT16=
EXTT17=
EXTT18=
EXTT19=
PLAYORDER=
